<svg width="110" height="32" viewBox="0 0 110 32" fill="none" xmlns="http://www.w3.org/2000/svg">
<rect width="110" height="32" rx="4" fill="#FACAAC"/>
<path d="M10.6021 27.3841C10.2243 27.614 9.75595 27.2763 9.85479 26.8452L11.4732 19.7874C11.5143 19.608 11.4536 19.4205 11.315 19.2993L5.88288 14.5485C5.55129 14.2585 5.72959 13.7124 6.16842 13.674L13.3392 13.0461C13.5242 13.0299 13.6849 12.9125 13.7567 12.7412L16.5388 6.10071C16.7102 5.69166 17.2898 5.69166 17.4612 6.10071L20.2433 12.7412C20.3151 12.9125 20.4758 13.0299 20.6608 13.0461L27.8316 13.674C28.2704 13.7124 28.4487 14.2585 28.1171 14.5485L22.685 19.2993C22.5464 19.4205 22.4857 19.608 22.5268 19.7874L24.1452 26.8452C24.2441 27.2763 23.7757 27.614 23.3979 27.3841L17.2599 23.649C17.1003 23.5518 16.8997 23.5518 16.7401 23.649L10.6021 27.3841Z" fill="#363534"/>
<path d="M47.96 22.82H46.12V25.38H43.5V22.82H37.96L37.62 20.68L44.18 12.58H46.12V20.68H48.22L47.96 22.82ZM40.42 20.68H43.5V16.74L40.42 20.68ZM50.7555 21.08C51.1688 21.08 51.5221 21.2467 51.8155 21.58C52.1221 21.9133 52.2755 22.3467 52.2755 22.88C52.2755 23.6133 52.0221 24.3867 51.5155 25.2C51.0221 26.0267 50.3955 26.6533 49.6355 27.08L49.0555 25.84C49.4021 25.5467 49.6888 25.2733 49.9155 25.02C50.1555 24.7667 50.3221 24.4267 50.4155 24C50.1888 24 49.9488 23.8533 49.6955 23.56C49.4421 23.2533 49.3155 22.92 49.3155 22.56C49.3155 22.2 49.4555 21.8667 49.7355 21.56C50.0155 21.24 50.3555 21.08 50.7555 21.08ZM53.9059 22.2H56.0859V15.66L55.0459 16.26L53.8259 14.5L56.9459 12.68H58.6859V22.2H60.2259L60.4459 24H54.1059L53.9059 22.2Z" fill="#363534"/>
<path d="M73.06 23.684C72.328 22.724 71.782 21.662 71.422 20.498C71.062 19.334 70.882 18.248 70.882 17.24C70.882 16.232 71.056 15.158 71.404 14.018C71.764 12.866 72.316 11.798 73.06 10.814L74.23 11.228C73.702 11.828 73.246 12.764 72.862 14.036C72.478 15.296 72.286 16.358 72.286 17.222C72.286 18.11 72.478 19.196 72.862 20.48C73.246 21.764 73.696 22.694 74.212 23.27L73.06 23.684ZM78.8376 12.578C80.0496 12.578 80.9556 12.878 81.5556 13.478C82.1676 14.078 82.4736 14.768 82.4736 15.548C82.4736 16.172 82.2816 16.724 81.8976 17.204C81.5256 17.672 81.0816 17.99 80.5656 18.158C81.1536 18.302 81.6516 18.632 82.0596 19.148C82.4796 19.664 82.6896 20.288 82.6896 21.02C82.6896 21.956 82.3176 22.748 81.5736 23.396C80.8296 24.044 79.8276 24.368 78.5676 24.368C77.9076 24.368 77.2596 24.26 76.6236 24.044C75.9996 23.84 75.4656 23.618 75.0216 23.378L75.7776 22.406C76.2096 22.67 76.6356 22.868 77.0556 23C77.4756 23.144 77.9976 23.216 78.6216 23.216C79.2936 23.216 79.8996 23.03 80.4396 22.658C80.9916 22.274 81.2676 21.74 81.2676 21.056C81.2676 20.336 81.0036 19.766 80.4756 19.346C79.9596 18.926 79.1136 18.716 77.9376 18.716H77.5056L77.2896 17.654H78.0456C78.9816 17.654 79.7136 17.468 80.2416 17.096C80.7816 16.712 81.0516 16.202 81.0516 15.566C81.0516 15.086 80.8476 14.666 80.4396 14.306C80.0316 13.934 79.4796 13.748 78.7836 13.748C78.1596 13.748 77.6076 13.85 77.1276 14.054C76.6476 14.246 76.2576 14.438 75.9576 14.63L75.2556 13.694C75.7596 13.37 76.2996 13.106 76.8756 12.902C77.4636 12.686 78.1176 12.578 78.8376 12.578ZM89.9904 23H85.1124L84.9504 21.92H86.8764V14.522C86.6724 14.666 86.4624 14.81 86.2464 14.954C86.0424 15.086 85.8384 15.218 85.6344 15.35C85.5144 15.194 85.4004 15.032 85.2924 14.864C85.1844 14.696 85.0764 14.534 84.9684 14.378L87.3624 12.812H88.3164V21.92H89.8464C89.8704 22.112 89.8944 22.298 89.9184 22.478C89.9544 22.646 89.9784 22.82 89.9904 23ZM91.9971 23.81L97.4871 13.982H92.0151L91.8351 12.812H98.7651L99.2331 13.442L93.3471 24.242L91.9971 23.81ZM101.182 10.814C101.902 11.774 102.442 12.836 102.802 14C103.174 15.152 103.36 16.232 103.36 17.24C103.36 18.248 103.18 19.328 102.82 20.48C102.46 21.632 101.914 22.7 101.182 23.684L100.03 23.27C100.546 22.682 100.996 21.752 101.38 20.48C101.764 19.196 101.956 18.122 101.956 17.258C101.956 16.37 101.764 15.29 101.38 14.018C100.996 12.746 100.546 11.822 100.03 11.246L101.182 10.814Z" fill="#726D6D"/>
</svg>
